<svg version="1.2" xmlns="http://www.w3.org/2000/svg" viewBox="0 0 365 1000" width="365" height="1000"><defs><clipPath clipPathUnits="userSpaceOnUse" id="cp1"><path d="m365 0v1000h-364.93v-1000z"/></clipPath></defs><style>.a{fill:none}.b{fill:none;stroke:#000;stroke-linecap:round;stroke-linejoin:round;stroke-width:1.3}.c{fill:none;stroke:#000;stroke-linecap:round;stroke-linejoin:round;stroke-width:3.7}.d{fill:none;stroke:#000;stroke-linecap:round;stroke-linejoin:round;stroke-width:2}.e{stroke:#000;stroke-linecap:round;stroke-linejoin:round;stroke-width:3.7}.f{fill:none;stroke:#000;stroke-linecap:round;stroke-linejoin:round;stroke-width:1.5}.g{stroke:#000;stroke-linecap:round;stroke-linejoin:round;stroke-width:1.3}.h{fill:none;stroke:#000;stroke-linecap:round;stroke-linejoin:round;stroke-width:2.5}</style><path class="a" d="m365 0v1000h-364.9v-1000z"/><g clip-path="url(#cp1)"><path fill-rule="evenodd" class="b" d="m235.9 514l-1.8-27.9h4z"/><path class="c" d="m236.1 486.1c0 0 0.1-10.7 1.9-16"/><path class="d" d="m235.3 557.1v-68.8"/><path  d="m221.7 431.5c-2.3 0-4.2-1.9-4.2-4.3 0-2.4 1.9-4.3 4.2-4.3 2.4 0 4.3 1.9 4.3 4.3 0 2.4-1.9 4.3-4.3 4.3z"/><path fill-rule="evenodd" d="m221 420.9c3.5-0.4 6.6 2.1 7.1 5.5 0.4 3.5-2.1 6.7-5.6 7.1-3.5 0.4-6.6-2.1-7.1-5.5-0.4-3.5 2.1-6.7 5.6-7.1zm5 6.3c0-2.4-1.9-4.3-4.3-4.3-2.3 0-4.2 1.9-4.2 4.3 0 2.4 1.9 4.3 4.2 4.3 2.4 0 4.3-1.9 4.3-4.3z"/><path  d="m238.8 420.3c-2.4 0-4.3-1.9-4.3-4.3 0-2.3 1.9-4.2 4.3-4.2 2.4 0 4.3 1.9 4.3 4.3 0 2.3-1.9 4.2-4.3 4.2z"/><path fill-rule="evenodd" d="m238.7 422.4c-3.5 0-6.3-2.8-6.3-6.4 0-3.5 2.8-6.3 6.3-6.3 3.5 0 6.4 2.8 6.4 6.3 0 3.6-2.9 6.4-6.4 6.4zm4.4-6.3c0-2.4-1.9-4.3-4.3-4.3-2.4 0-4.3 1.9-4.3 4.3 0 2.3 1.9 4.2 4.3 4.2 2.4 0 4.3-1.9 4.3-4.2z"/><path  d="m226.3 823.2c-2.3 0.4-4.5-1.1-5-3.4-0.4-2.3 1.1-4.6 3.5-5 2.3-0.4 4.5 1.1 4.9 3.4 0.5 2.4-1.1 4.6-3.4 5z"/><path fill-rule="evenodd" d="m224.4 812.8c3.5-0.6 6.8 1.6 7.4 5.1 0.6 3.4-1.7 6.7-5.1 7.3-3.5 0.7-6.8-1.6-7.4-5-0.6-3.5 1.6-6.8 5.1-7.4zm-3.1 7c0.5 2.3 2.7 3.8 5 3.4 2.3-0.4 3.9-2.6 3.4-5-0.4-2.3-2.6-3.8-4.9-3.4-2.3 0.5-3.9 2.7-3.5 5z"/><path  d="m228.4 836.3c-2.1-1.2-4.7-0.5-5.9 1.6-1.1 2-0.4 4.6 1.6 5.8 2.1 1.1 4.7 0.4 5.9-1.6 1.1-2.1 0.4-4.7-1.6-5.8z"/><path fill-rule="evenodd" d="m223.1 845.5c-3-1.8-4.1-5.6-2.4-8.7 1.7-3 5.6-4.1 8.7-2.4 3 1.8 4.1 5.6 2.4 8.7-1.7 3-5.6 4.1-8.7 2.4zm1-1.8c2.1 1.1 4.7 0.4 5.9-1.6 1.1-2.1 0.4-4.7-1.6-5.8-2.1-1.2-4.7-0.5-5.9 1.6-1.1 2-0.4 4.6 1.6 5.8z"/><path fill-rule="evenodd" class="e" d="m237.4 472.3c0.3-8.6 10.1-22.2 16.8-37.5 2.9-6.8 5-14.1 5.2-22 0.7-34.2-28.1-40.2-28.1-40.2l12.4-15.2c0 0 18.1 10.7 21.2 53.2 1.3 18.1-25.3 47.4-27.5 61.7z"/><path fill-rule="evenodd" class="e" d="m238.5 354.6c-5.8 0-10.5 4.6-10.5 10.4 0 5.7 4.7 10.4 10.5 10.4 5.8 0 16.7 7.1 16.7 1.3 0-5.7-10.9-22.1-16.7-22.1z"/><path class="f" d="m180.8 557.1c-0.1-8 0-52.5 0-57.9v-4.5c-0.1-20.6-13.3-22.5-25-30.1-7.6-4.9-15.8-9.6-22.6-12.4"/><path class="c" d="m133.2 452.2c-12.3-5.3-26.6-5.1-38-2.7-10.7 2.4-19.3 11.1-19.1 25.7 0 11.8 17.8 10.3 12.3 36.9-4.6 21.8 3.7 19.3 18.4 30.6 7.9 6.1 14.1 12.5 20.6 39.6 2.1 9.2 10.7 78.3 12.9 94.4 2.3 16.4-2.2 34.3-16.3 43.2-10.5 6.8-13.1 12.1-12.2 23.4 0.8 10.8 18.8 19.7 21.4 41 2 17-6.1 22.5-1.9 31.4 5.2 11.1 14.3 14.8 26.8 14.3 13.6-0.5 20.4-14.9 36-13.2 17.1 1.9 25.6 1.7 25.6 1.7"/><path fill-rule="evenodd" class="g" d="m202.6 817.8l22.4-2.8-0.2 8z"/><path fill-rule="evenodd" class="g" d="m199.8 832.9c10.2 3.2 24.3 10.8 24.3 10.8l3.1-7.9c0 0-9.1 0.1-27.4-2.9z"/><path class="c" d="m216.5 837.2c0 0-8.4-3.3-22.1-5.2-12.1-1.7-19.2 10.9-34.3 10.7-15.8-0.3-32-2.9-40.3-24.2-4.6-11.7 4-18 2.2-31.5-2.7-19.9-19.6-25.3-21-42.1-1-11.3 0.3-23.1 12-31 11.9-8 18.2-14.6 16.8-31.9-0.5-6-11.9-88.5-14.8-99.7-4.6-17.7-9.5-25.4-17.7-31.8-14.6-11.4-27.4-4.4-20.9-41 4.2-19-13.7-21-11.7-38.1 2.1-17.6 11.8-29.9 27.1-33.2 9.1-2.1 22.5-3.7 37.4 0.3"/><path class="f" d="m129.2 438.5c9.3 2.1 17.8 12.9 27.3 18.9 12.9 8.1 28.3 13.9 28.5 29 0 1-0.1 5.1-0.1 5.6v65.1"/><path class="f" d="m189.1 557.1v-72.3c-0.2-18.7-18.3-24.2-31.7-34.7-11.7-9.1-19.4-22.9-34.5-24.8"/><path class="c" d="m122.9 425.3c-15.1-2.2-25.2-1.6-34.9 1.6-11 3.5-30.2 10.7-35.5 43.4-3.2 19.8 14.7 23.8 12.3 38.1-3.6 21.9-0.3 36.8 10.5 43.5 16.5 10.3 25.6 2.8 33 56.6 3.7 26.6 6.9 43.6 9.3 58.4 3.9 23.4 2.4 30.4-12.8 40.3-11.8 7.5-14.9 18.3-14.6 33.7 0.5 27.3 17.2 27.3 21.4 47.9 1.7 8.2-7.7 18.8-3.3 31.4 19.9 56.1 70.9 20.4 78.3 42.4"/><path class="f" d="m193.3 557.1v-73.6c0-22.9-21.7-29.9-33.6-40.2-13.2-11.3-25.1-27.4-40.7-30.4"/><path class="c" d="m119 412.9c-13.3-1.6-25.5-0.9-37.8 3.3-12.8 4.6-38.1 18.8-39.7 55-1.1 28.4 15.9 21.4 10.8 51-4.8 27.5 15.3 38.8 15.8 59"/><path class="f" d="m197.5 557.1c0-11.3 0.1-44.6 0-63.2q-0.1-6.9 0-12.2c0.1-25.2-23.4-32.7-37.6-47.7-10.1-10.7-26.7-30.1-44-33.6"/><path class="c" d="m119.7 401.4c-11.9-3.6-20.4-9.7-26.6-20.6"/><path class="f" d="m201.7 557.1c0-11.2-0.1-45.1-0.1-68.9v-13.8c-0.3-20.2-24.2-29.3-43.9-51.6-9-10.2-26-26.1-38.1-35.8"/><path class="c" d="m125.1 392c-14-9.1-8.7-38.1-1.8-50.1 5.8-10 7.8-19-0.1-36.2-9.2-20.1 4.3-20.6 0-36.1-4.9-17.7-20.1-5.5-24.3-23.7-4.4-18.9-0.9-32.8-12.8-53.5"/><path class="f" d="m205.8 557.1v-87c-0.6-21.9-28.9-31.4-49.7-59.9-7.1-9.8-19.1-19.3-26.2-29"/><path class="c" d="m135.6 388c-9.9-13.3-5.9-34 3.3-41.9 18.8-16.2-5.8-32.4 26.8-36.6"/><path class="f" d="m210 557.1v-85-6.4c0-17.7-23.6-29.6-44.8-56.6-12.6-16.1-19.9-22.3-21-32.6"/><path class="c" d="m146.7 385.6c-18-50.1 46.5-35 77.1-73.3 10.6-13.2 11.1-32.2 9.8-48.2-1.2-14.1-11.8-29.3-12.7-38.7-2-22.6 5.4-27.1 9.4-39.5 8.2-25.7-9.6-37.5 13.4-59.6"/><path class="f" d="m214.2 557.1v-96.5c-0.2-15.5-23.5-31.7-37.2-48-9.8-11.7-14.1-17-21.7-36.6"/><path class="c" d="m157.5 383c-18.4-32.1 42.5-28.3 72.8-59 10.9-11 17.4-1.7 28-11.7 9.4-8.9-1.3-22.7 17.2-33"/><path class="f" d="m218.4 557.1c0-15.7-0.1-71.2-0.1-95.8v-4.2c0-15.7-21.3-31.2-33.8-44.8-9.1-9.7-10.3-15.7-15.8-33.8"/><path class="c" d="m169.4 380.9c-5.2-18.2 24.8-19.6 44.8-32.7 22-14.4 35.1-7.4 43.4 0 12.2 11 14.3 3.4 23.2 16 9.1 13-4.6 20.3 0 36.7 4.7 17 17.5 14.5 19.5 34.2 2 20.2-16.9 25.6-15.5 37.6 2.3 19.3 14.9 15 14.4 37.2-0.3 13.6-0.9 18.5-0.9 20.3"/><path class="f" d="m222.6 557c-0.1-19.9-0.1-85.5 0-96.8 0-4.7 2.1-11.9 2.4-18.2"/><path class="b" d="m224.3 442c0.3-7.9 0.6-14.9 0.6-14.9"/><path fill-rule="evenodd" class="g" d="m223.8 450.9c0.8-4.9-1.4-10-1.4-10l2.8-0.6c0 0-0.3 4.1-1.4 10.6z"/><path fill-rule="evenodd" class="g" d="m228.6 461.7l2.6-10.6 2 0.6z"/><path class="f" d="m226.8 557.1c0-17.6-0.1-67.2-0.1-88 0-4.9 4.2-11.9 6.4-18.3"/><path class="h" d="m232.4 450.8c0.8-2.3 1.5-4.5 2.2-6.7 3.5-11 12.7-19.8 4.2-28"/><path fill-rule="evenodd" class="g" d="m224.2 447.2l-6.6-18.8c0 0 6.8-4.7 8.4-1.8 1.1 2-1.8 20.6-1.8 20.6z"/><path fill-rule="evenodd" class="g" d="m238.8 435.5c1.7-15.2-4.7-17-4.7-17l10-2.9c0 0 1.7 10.4-5.3 19.9z"/><path fill-rule="evenodd" d="m96.4 380.3c-1.7 1.2-3.9 3-5 3.7-4.4-5.2-19.6 2.5-19.6 2.5 0 0 12.1-23.6 22.6-24.5-1.1 4.8-2.1 11.3 2 18.3z"/><path fill-rule="evenodd" d="m83.6 593.3c-0.8-4.8-5.3-8.1-10.1-7.3l-7.3 1.2c-4.8 0.8-8.1 5.3-7.3 10.1l13.3 81.1c0.8 4.8 5.3 8.1 10.1 7.3l7.4-1.2c4.8-0.7 8-5.3 7.2-10.1z"/><path fill-rule="evenodd" d="m274.3 283.6c-1.1-1.3-2.7-3.9-3.3-5.2 5.1-4.3 1.7-13.3 1.7-13.3 0 0 21.7 15.6 18.2 19.5-6.6-3.7-11.9-4-16.6-1z"/><path fill-rule="evenodd" d="m158.5 314.1c-0.6-1.6-2.1-4.3-2.3-5.8 4.1-1.9 1.3-7.3 1.3-7.3 0 0 22.5 10.7 18.1 13.3-6.2-1-10.5-1.7-17.1-0.2z"/><path fill-rule="evenodd" d="m86.5 199.9c1.4-0.7 4.8-0.5 6.2-0.9-1.2-3.2 6.2-10.8 6.2-10.8 0 0-23.4-6.7-23.9-1.6 3.7 4.2 10.1 9.3 11.5 13.3z"/><path fill-rule="evenodd" d="m71.1 578.3c-0.9 0.2-5.2 0.6-6.3 0.8 0.6 5.9-4.6 11.9-4.6 11.9 0 0 13.1 0.1 20.1-3.3-4.3-2.9-8.7-4-9.2-9.4z"/><path fill-rule="evenodd" d="m243.1 131.4c-0.9-1.3-3.6-2.9-5-3.8 2.2-3.8-4.8-8.7-4.8-8.7 0 0 30 1.5 28 6.3-6.7 1.5-15.1 1.9-18.2 6.2z"/><path fill-rule="evenodd" d="m201.5 262.6c0-12.7-10.3-23-23-23-12.7 0-23 10.3-23 23v29c0 12.6 10.3 22.9 23 22.9 12.7 0 23-10.3 23-22.9z"/><path fill-rule="evenodd" d="m152.3 134.9c3.4-3.3 3.4-8.8 0-12.2l-5.5-5.4c-3.4-3.4-8.9-3.4-12.3 0l-58.6 58.4c-3.4 3.3-3.4 8.8 0 12.2l5.5 5.4c3.4 3.4 8.9 3.4 12.3 0z"/><path fill-rule="evenodd" d="m307.5 543.7c0-4.9-4.1-9-9-9h-7.1c-5 0-9 4.1-9 9v81.9c0 5 4 9 9 9h7.1c4.9 0 9-4 9-9z"/><path fill-rule="evenodd" d="m287.3 535.6c0 0 10.3 0.4 16.4 0.8-1.4-1.7-2.4-2.6-2.3-7.9-0.4 0-3.5 0-6.2 0.2-0.3 4-7.9 6.9-7.9 6.9z"/><path fill-rule="evenodd" d="m95.9 322.5c0-20.7-16.9-37.6-37.6-37.6-20.8 0-37.7 16.9-37.7 37.6v28.9c0 20.7 16.9 37.6 37.7 37.6 20.7 0 37.6-16.9 37.6-37.6z"/><path fill-rule="evenodd" d="m239.1 900.1c0-20.7-16.9-37.5-37.6-37.5-20.8 0-37.7 16.8-37.7 37.5v28.9c0 20.8 16.9 37.6 37.7 37.6 20.7 0 37.6-16.8 37.6-37.6z"/><path fill-rule="evenodd" d="m181.9 860.5c1.2-1.2 3.1-2.4 5.2-3.4 3.1 4 13.8 5.6 13.8 5.6 0 0-26.8 16-25.9 11 2.3-2.4 8.6-7.8 6.9-13.2z"/><path fill-rule="evenodd" d="m292.3 59.3c0-20.7-16.9-37.5-37.6-37.5-20.8 0-37.6 16.8-37.6 37.5v28.9c0 20.8 16.8 37.6 37.6 37.6 20.7 0 37.6-16.8 37.6-37.6z"/><path fill-rule="evenodd" d="m345 221.9c0-20.7-16.8-37.6-37.6-37.6-20.7 0-37.6 16.9-37.6 37.6v28.9c0 20.7 16.9 37.6 37.6 37.6 20.8 0 37.6-16.9 37.6-37.6z"/><path fill-rule="evenodd" class="g" d="m171.4 380.7c1.4 4.8 1.8 13.2 4.2 18.6-2.6-4.2-7.4-13.8-8-17.4-0.3-1.3 3.1-2.3 3.8-1.2z"/><path fill-rule="evenodd" class="g" d="m159.5 382.4c2.4 5.7 3.1 10.5 7.6 17.5-3.4-4.1-9.3-11.5-11.5-16.2-0.3-1.3 3.3-2.4 3.9-1.3z"/><path fill-rule="evenodd" class="g" d="m148.4 383.9c1.2 5.8 5.6 11.3 10.4 17.2-6.9-7-13.4-11.7-14-14.9-0.6-1.2 2.7-3.3 3.6-2.3z"/><path fill-rule="evenodd" class="g" d="m137.2 386.8c2.8 4.3 7.7 10.1 14.9 18.3-9.8-8.6-13.8-10.3-18.4-16.4-0.7-1.2 2.6-2.9 3.5-1.9z"/><path fill-rule="evenodd" class="g" d="m126 390.1c4.5 2.6 14.5 14.1 23 23.3-11.4-11.2-19.2-15.8-25.4-20-0.7-1.1 1.4-4.1 2.4-3.3z"/><path fill-rule="evenodd" class="g" d="m118.9 403.3c8.7 2.3 18.5 6.5 28.1 17.2-7.4-9.2-20.5-19-27.1-21.1-1.3-0.3-2.2 3.2-1 3.9z"/><path fill-rule="evenodd" class="g" d="m119 414.8c6.2 0.8 16.4 5.9 27.2 15.8-6.6-6.3-17.8-18.5-27.4-19.8-1.3 0.2-1.2 3.8 0.2 4z"/><path fill-rule="evenodd" class="g" d="m121.6 427.1c6.2 1.1 10.5 1.3 22 9.9-5.8-6.3-15.7-13.5-22.1-13.9-1.3 0.1-1.2 3.7 0.1 4z"/><path fill-rule="evenodd" class="g" d="m129.1 440.6c6.2 1.5 8.4 1.5 19.4 10.8-5-5.4-12-13.5-19.2-14.8-1.3 0-1.4 3.6-0.2 4z"/><path fill-rule="evenodd" class="g" d="m132.7 454.2c4.8 2.4 11.1 3.7 22.4 10-8.1-6-16.9-11.8-21.3-14-1.3-0.2-2.3 3.4-1.1 4z"/><path fill-rule="evenodd" d="m248 297.3q0.1-0.2 0.2-0.3 0.4-1.2 0.9-3.3c1.2-7.3 1.3-21.2 1.2-32.3-0.2-20.6-3.2-41.2 1.8-59.1 3.5-12.5 16.2-25.6 24.8-30.3 2.9-1.6 8.8-7.2 15.5-11.5 4.7-3 9.7-5.4 14.4-5.5 7.4-0.2 13.9 2.9 19.9 7.2 5.7 4 10.9 9.1 15.8 12.9 11.3 9 21.1 21.4 22.1 58.2 1.2 44.7-12.3 64.6-33.6 72.5-1.1 0.5-2.4 1.7-4 3.4-2.6 2.7-5.6 6.5-8.5 9.7-2 2.3-4 4.3-5.8 5.6-1.4 1-2.8 1.6-3.9 1.7-1.2 0.1-2.5-0.3-3.8-1.3-1.5-1.1-3.1-2.9-4.7-5-2.2-3-4.5-6.4-6.8-8.8-1.2-1.4-2.4-2.4-3.6-2.6-0.3 0-0.6 0.1-1.1 0.3q-1 0.4-2.3 1.2c-4.3 2.7-10.6 8.1-15 13.5-2.2 2.5-5.5 4.1-9.3 4.9-5.2 1.2-11.3 1.2-15.4 1.5q-0.6 0-1.1 0.1c2.6 0.1 6.1 0.3 9.8 1.8 16 6.6 30.7 10.5 39.2 25.6 6.2 11.1 3.6 20.6 1.2 28.4-0.8 2.5-1.6 4.8-2 6.9-0.4 1.8-0.5 3.5 0 5.1 1 3 2.7 5.1 5 7.4 2.6 2.5 5.7 5.1 9.4 9.2 1.4 1.6 2.8 4.5 3.8 8 1.4 4.9 2.3 10.8 2.4 15.2 0.1 15-3.3 20.3-6 25.2-1.7 2.9-3.1 5.6-3.1 10.6 0 3.7 1.7 4.9 3.5 7.1 3.3 3.8 7.5 10.1 7.4 32 0 3.2 1.4 4.4 3 6.8 2.7 4.1 6.1 11 5.4 32.7v76.3c0.1 8.1-1.5 13.7-4 17.8-3.8 6-9.7 8.9-15.4 12.3-1.4 0.8-3 2.7-4.9 4.3-2.2 1.9-4.9 3.5-7.9 3.5-1.6 0-3.6-0.9-5.6-2.2-2.5-1.7-5.1-4-6.6-4.8-9.6-5.2-17.9-17-18.2-29.2v-92.5c-0.1-10.6 4.2-14.5 8.3-17.5 3.5-2.4 7.2-3.9 7.1-9.4-0.3-13.2-3-14.4-7.3-22.4-3.2-6-6.6-14.9-4.9-21.8 0.2-1.1 1.2-3 2.5-5.2 1.7-3.1 3.9-6.9 5.3-10.3 0.7-1.7 1.1-3.3 1.1-4.6 0-0.9-0.3-1.6-1-2-0.1 0-0.2 0.1-0.3 0.1q-0.4 0.1-0.8 0.3c-1.3 0.6-3 2-4.9 3.8-5.4 5-12.2 13.5-15.7 20.2-1.5 2.7-2.4 5.1-2.4 6.7 0 7 0.1 21.7 0 24.8v98.7c0 0.8-0.7 1.5-1.5 1.5h-71c-0.8 0-1.5-0.7-1.5-1.5v-97.4c-0.6-14.5-10-23.2-20.5-28.5-10.7-5.5-22.7-7.5-28-8.3-9.9-1.4-16.6-2.2-21.2-2.2-3.1 0.1-5.2 0.5-6.7 1.5-1.4 1-2.2 2.5-2.9 4.6-1.6 5.1 0.7 8.2 3.4 11.6 3.1 3.9 6.8 8.1 7 15 0.3 7.1-0.6 12.2-1.2 16.3-0.5 3.6-0.9 6.3-0.1 8.9 1.3 4 5.5 7.7 15.9 13.6 6.7 3.8 11.5 12 15.1 23.5 5.3 16.6 8.5 40.5 13 68.2 3.2 19.2 10.4 62.6 2.6 85.1-4 11.6-11.8 16.2-17.6 20.4-3.3 2.4-5.9 4.6-6 8.5 0 1.3 0.6 2.6 1.5 4 1.1 1.7 2.6 3.5 4.2 5.5 5.4 6.3 12.4 14.6 14.4 27.3 2.2 13.9-0.2 23.2-1.1 29.3-0.4 2.5-0.7 4.5 0.1 5.8 0.8 1.4 2.5 2.1 5.7 2.6 2.9 0.5 6.3-0.4 9.9-1.8 5.8-2.3 12.1-5.9 18-8.2 14.4-5.4 53.6-8.5 78.6-7.6 6.5 0.3 12 0.8 16 1.6 2.8 0.6 4.9 1.3 6 2.2 1.2 1 2.3 2.8 3.3 5.3 1.3 3.4 2.4 8 3.2 13.2 1.1 7.7 1.4 16.5 0.4 23.6-0.6 5-1.9 9.2-3.9 11.8-0.6 0.7-1.7 1.4-3.1 2-1.8 0.8-4.3 1.3-7.3 1.8-10.9 1.7-28.1 1.5-36 1.7h-0.3c13.3 11 23.3 27.8 23.6 53 0.3 31.8-7.5 52.5-24 62.6-4.7 2.9-12.7 10.9-20.4 16.9-5.4 4.2-10.8 7.4-14.8 7.4-3.6 0-8.1-2.4-12.8-5.8-6.4-4.8-13.2-11.2-17.8-13.7-8.9-5-16.7-9.7-22.3-19.2-5.6-9.4-9-23.5-9-47.3-0.1-21.8 4.7-26.4 4.9-39.3 0.1-2.3-0.2-3.8-1-4.6-0.8-0.8-2-1-3.5-1.2-2.6-0.2-5.9-0.2-9.8-1-9.5-2.1-16.6-8.1-22.2-15.4-5.4-7.2-9.5-15.6-13.2-22.8-5.6-11-3.9-20.7-2-28.2 0.7-2.8 1.5-5.3 1.8-7.4 0.2-1.2 0.3-2.3 0.1-3.1-1.8-7.2-4.9-11.9-8.1-17-3.3-5.2-6.7-10.8-8.9-19.5-2.2-9.2-0.7-17.3 1.1-25.1 1.6-7.5 3.5-14.5 2.3-21.9-0.1-0.4-0.2-0.8-0.4-1-0.3-0.2-0.6-0.3-1-0.3-0.9-0.1-1.9 0-3.1 0.1-4 0.5-9.3 1.2-14.3-2.3-4.8-3.3-9.4-10.8-11.9-26.9-2.4-15.7-8.2-53.9-11-68.9-3.7-19.3-0.6-24.4 1.6-28.9 1.3-2.7 2.3-5 1.1-10.7-0.7-3.1-3-7.2-5.2-11.7-2.3-4.8-4.6-10.1-5.3-15.4-1-7.9 2-15.3 4.4-21.4 1.4-3.6 2.7-6.6 2.4-9-0.8-5.1-2.7-9.1-4.7-13.9-3-7.4-6-16.6-5.2-34.4 0.5-11.6 8-34.8 26.7-48.5 9.1-6.7 21.6-8.6 28.1-10.3q1.5-0.4 2.5-0.8 0.1-0.1 0.3-0.1c-0.3-0.3-0.7-0.6-1.1-0.8-0.6-0.4-1.4-0.5-2.3-0.4-1.1 0.1-2.4 0.4-4 0.8-4.9 1.3-11.7 3.8-20.6 4.7-11.7 1.3-27.3-3.5-30-5.1-8.4-5.1-20.7-15.9-26-33.6-3.9-12.9-2.2-30-1.9-48.6 0.6-27 16.5-40.2 29-47.4 7.6-4.3 13-10.2 18.3-14 3.9-2.8 7.8-4.5 12.3-4.1 2 0.2 4.9 1.7 8.1 3.9 6.6 4.7 14.6 12.5 17.5 14.2 4.4 2.6 22.8 18.3 25.2 41 1.7 16.3-0.5 35.3-1.1 47.2q-0.1 0.9-0.1 1.8c0.6-4.9 1.2-11.5 1.6-19 0.2-4.4 1.6-7.3 3-10.3 1.1-2.6 2.2-5.2 2-9.4-0.3-4.4-2.2-9-4.1-13.8-2-5.1-3.8-10.3-4-15.8-0.1-5.4 2.2-11.9 2.6-16.9 0.3-2.6 0.1-4.7-2-5.7-8.3-3.7-20.6-6.1-23.1-24-1.3-9.3-2.5-15.7-3.8-20.1-1.3-4.1-2.5-6.3-4.2-7.7-2.3-2-5.2-2.2-9.2-3.4-2.3-0.7-5.2-0.3-7.8-0.4-2.1-0.1-4-0.6-5.4-1.9-1-0.9-1.8-3.3-2.4-6.3-0.9-4.3-1.4-10-2-13.7-0.2-1.4-0.4-2.6-0.7-3.1-2.1-4.4-2.9-9.5 1.8-17.6 2.9-5.1 8.1-11.4 16.7-19.7 13.6-13.1 45.2-44.8 54.8-53.9 5.3-5.1 17.6-8.2 24.1-7.4 7.1 0.8 16.9 2.1 22.2 7.4 2.6 2.5 4.2 6 5 9.8 1.2 5.4 0.9 11.5 0.2 16.3-0.6 4.3-3.8 15.4-7.5 19.3-27.1 28.5-49.8 50.4-58.2 58.5-1.8 1.7-2.4 4.7-2.4 8-0.2 5.4 1.1 11.5 1.6 14.9 0.7 5.7 1.6 10.2 3.1 13.4 1.3 2.8 2.9 4.5 5.2 4.9 7.6 1.2 15 5.7 18.2 21.9 1.8 9.6-0.1 18.9-1.1 27.5-0.7 5.4 1.2 10.2 3.3 12.2 0.3 0.3 0.6 0.6 1 0.5 0.1 0 0.1-0.1 0.2-0.2q0.2-0.2 0.4-0.6c0.1-0.4 0.1-1 0.1-1.8 0-1.6-0.1-3.8-0.2-6.6-0.7-11-2-29.9 0.8-46.6 3-18.1 13-23.8 19.5-27.6 7-4.2 19.4-8.5 32.5-2.3 6.1 2.8 19.7 15.3 22.8 28.7 3.4 14.6 2 31.9 2 41.4 0 1.9 0.1 3.5 0.3 4.6 0 0.2 0.1 0.5 0.1 0.7q0.2 0 0.2-0.1 0.5-0.7 1-1.7c2.1-4.8 3.5-14.7 3.3-22.5-0.1-9.1-4.5-19.1-8.6-29.7-4.3-11-8.3-22.4-7.6-33.9 0.5-6.6 3-10.8 5.9-15.1 4-6 8.6-12.4 8.1-27.2-0.7-18.2-2.6-28.3-5.2-34.8-3.3-8-15.3-29.9-17.8-35.5-1.5-3.4-4.2-8.5-6-13.3-1.4-3.4-2.3-6.6-2.2-9 0.2-8.9 3.4-17.4 8.2-26.8 3.1-6.1 8.7-24.6 19.5-33.5 36.3-30 94.6-8.1 94.5 45.7 0 10 1.1 34.4-2.4 52.2-1.6 7.9-4.1 14.5-7.8 18.2-5.8 5.6-23 12.5-30.1 13.7-8.9 1.5-13.4 3.1-15.7 6-1.5 1.9-2 4.2-2.4 7.3-1.1 9.3 1.8 13.2-0.5 26.9-1.5 8.8-4.9 15.1-8.1 20.6-3 5.2-5.9 9.7-6.5 15-0.4 3.6 0.7 7.4 2.3 12 2.6 7.3 6.4 16.6 8.4 30.1 2.4 16.5 0.3 28.1 0.4 33.8q0 1.2 0.2 2 0 0.2 0.1 0.3zm-0.4 301.6v-98.7c0.1-3 0.1-17.8 0-24.7 0-8.9 21.8-34.6 26.2-32.5 6.6 3.2-6 19.3-7.1 23.8-1.6 6.5 1.7 15 4.8 20.7 4.4 8.3 7.2 9.5 7.4 23.1 0.2 12.3-15.4 7.1-15.4 26.9 0.1 23.2 0 92.4 0 92.4 0.3 11.7 8.3 23.1 17.5 28 2.6 1.4 8 6.9 11.5 6.9 5.3 0 9.2-6 12-7.7 9.2-5.5 19.1-9.3 18.7-28.8v-76.3c1.2-35.3-8.4-30.5-8.4-39.5 0.1-35.4-10.9-28.8-10.8-39.1 0-13.2 9.2-11.6 9-35.8-0.1-7-2.4-18.5-5.8-22.3-7.2-8-12.6-10.6-14.7-17.1-2.8-8.8 10.8-22.4 0.9-40.1-8.3-14.8-22.8-18.5-38.5-24.9-6.9-2.9-13.2-0.7-13.1-3 0.1-3.9 21.6 0.7 28.6-7.7 6.5-7.8 16.7-15.9 19.7-15.4 6.1 0.9 13 18.1 18.6 17.6 5.9-0.4 16.6-18.3 21.8-20.2 20.9-7.8 33.9-27.4 32.7-71.2-1-36-10.6-48.3-21.6-57-9.8-7.7-20.7-20.2-34.8-19.9-11 0.3-24.4 14.3-29.2 16.9-8.3 4.6-20.7 17.2-24 29.4-5 17.7-2.1 38.2-1.8 58.7 0.1 15.9-0.1 37.8-3.7 37.5-4.7-0.4 1.2-14.1-2.2-37.5-3.3-22.4-11.8-32.9-10.7-42.4 1.2-11.2 11.7-18.6 14.6-35.7 2.3-13.7-0.6-17.6 0.4-26.9 1-8.4 3.7-11.9 19.4-14.5 6.8-1.2 23.6-7.9 29.2-13.3 12.1-11.7 9.9-55.2 9.9-69.4 0-52.5-56.8-73.8-92.2-44.6-10.6 8.8-16.1 27-19.1 33-4.6 9.2-7.9 17.5-8 26.2-0.2 5.6 5.5 16.1 8 21.7 2.6 5.6 14.6 27.6 17.8 35.6 2.7 6.5 4.7 16.8 5.3 35.2 0.9 25.6-12.9 26.7-13.9 42.5-1.4 22.5 15.9 45 16.2 63.5 0.2 11.5-2.8 27.2-6.6 25.9-3.3-1.1 1.5-27.3-3.2-47.9-3-13-16.2-25.1-22-27.8-12.6-5.9-24.4-1.7-31.2 2.2-6.2 3.7-15.9 9.2-18.8 26.7-3.9 23.7 0.5 51.8-0.8 55.2-2.1 5.6-8.9-2.7-7.7-12.5 1-8.5 2.9-17.7 1.1-27.1-2.9-15.3-9.8-19.6-16.9-20.8-5.7-0.9-8.1-7.8-9.6-19.5-0.7-5.8-3.9-19.2 1.3-24.2 8.4-8 31.1-29.9 58.1-58.4 3.6-3.8 6.6-14.4 7.2-18.5 1-7.8 1.1-19-4.8-24.9-5.1-5-14.6-6.2-21.4-7-6.1-0.7-17.8 2.3-22.9 7-9.6 9.1-41.2 40.8-54.8 54-21.1 20.3-21.4 28.9-18.1 35.5 1.4 3.1 1.9 20 4.7 22.7 2.8 2.7 8.6 0.8 12.6 2 10.6 3 13.9 0.9 18.2 32.4 2.4 17.2 14.3 19.3 22.3 22.9 6.6 3 0 14.9 0.3 23.9 0.3 10.6 7.4 20.3 8 29.5 0.6 8.9-4.6 11.5-5 19.9-0.7 15.4-2.6 27.2-3 27.5-2.7 2.1-1.7-3.8-1.4-10.5 0.6-11.8 2.8-30.7 1.1-47-2.3-22-20.1-37.3-24.5-39.8-4.1-2.5-18.7-17.4-24.9-17.9-10.4-1-17.1 10.6-29.7 17.9-12.2 7-27.8 19.8-28.3 46.1-0.4 18.5-2 35.4 1.8 48.2 5.2 17.2 17.2 27.7 25.4 32.7 2.6 1.6 17.7 6.2 29.1 5 14.5-1.6 23.6-7.4 27.7-5 9.6 5.7-14.8 3.5-29.7 14.5-18.2 13.4-25.5 36.1-26 47.4-1.3 29.1 7.8 34.8 9.8 48 1 6.4-8.4 17.7-6.7 30.4 1.3 10.3 9 20.5 10.4 27 3.4 15.4-8.5 8.5-2.7 39.6 2.8 15 8.7 53.2 11.1 68.9 6.8 44.5 29 20.8 30.6 30.5 2.6 15.1-7.6 29-3.3 46.8 4.1 17.1 13.3 21.8 16.9 36.5 1.6 6.5-8.9 20.7 0 38.4 7.3 14.4 16.1 33.4 34.4 37.4 9.6 2.2 15.6-1.4 15.5 8.4-0.2 12.8-5 17.4-5 39.2 0.1 46.9 13.2 55.5 30.6 65.2 7.7 4.2 21.6 19.4 29.9 19.3 9.5 0 26.5-19.2 34.5-24 16.1-9.9 23.6-30.2 23.2-61.4-0.3-26.5-11.5-43.5-25.9-54.1-1.5-1.1 44.4 1 49.3-5.3 7.8-10.1 3.6-46.7-2.7-51.8-8.1-6.6-78.8-3.7-99.2 4-9.9 3.7-20.7 11.4-28.6 10.1-15.2-2.6-1.7-11.5-5.9-39-3.2-20.6-20.4-29.3-20.2-37.1 0.3-10.8 17.3-10.6 23.8-29.3 7.7-22.2 0.4-65.3-2.7-84.4-7.6-46-11.2-81.4-27.5-90.6-25.8-14.8-14.4-16.9-15.2-40-0.5-13.1-14.1-15.8-10.4-27.2 2.7-8.1 7.4-8.5 32.4-4.8 10.9 1.6 48.5 8.1 49.7 38.1 0 0.1 0 2.9 0.1 7.2v90.3z"/><path  d="m213.3 418.1c-11.5 0-20.8-9.3-20.8-20.8 0-11.4 9.3-20.7 20.8-20.7 11.5 0 20.8 9.3 20.8 20.8 0 11.4-9.3 20.7-20.8 20.7z"/><path  d="m257.4 849c-11.5 0-20.8-9.3-20.8-20.8 0-11.4 9.3-20.7 20.8-20.7 11.5 0 20.8 9.3 20.8 20.8 0 11.4-9.3 20.7-20.8 20.7z"/><path fill-rule="evenodd" d="m187.1 572.6q0.4 0.6 0.4 1.3 0 0.8-0.4 1.3-0.2 0.2-0.6 0.4 0.6 0.3 0.9 0.8 0.4 0.5 0.4 1.2 0 0.8-0.4 1.3-0.2 0.4-0.6 0.7-0.4 0.3-1 0.4-0.5 0.1-1.1 0.1h-3.4c-0.3 0-0.4-0.1-0.4-0.4v-7.5c0-0.3 0.1-0.5 0.4-0.5h3.6q1.6 0.1 2.2 0.9zm-4.2 0.6c-0.2 0-0.4 0.2-0.4 0.4v1c0 0.3 0.2 0.5 0.4 0.5h1.3c0.2 0 0.6-0.1 0.8-0.1 0 0 0.2 0 0.5-0.2q0.3-0.2 0.3-0.7 0-0.6-0.4-0.8-0.4-0.1-1-0.1zm0 3.2c-0.3 0-0.4 0.2-0.4 0.5v1.4c0 0.2 0.1 0.4 0.4 0.4h2c0 0 0.3-0.1 0.5-0.2q0.5-0.2 0.5-1 0-0.7-0.5-0.9-0.3-0.1-0.9-0.2z"/><path fill-rule="evenodd" d="m193.1 572.5q0.4 0.2 0.8 0.5 0.2 0.3 0.3 0.7 0.2 0.4 0.2 0.8 0 0.6-0.3 1.1-0.3 0.6-0.9 0.8 0.5 0.2 0.7 0.6 0.3 0.4 0.3 1.2v1.3q0.1 0.3 0.3 0.4c0 0.2-0.2 0.2-0.4 0.2h-1c-0.2 0-0.4-0.1-0.5-0.3v-0.1q-0.1-0.3-0.1-0.7v-1.1c0 0-0.1-0.4-0.2-0.6q-0.3-0.2-1-0.2h-1.2c-0.2 0-0.4 0.1-0.4 0.4v2.2c0 0.3-0.2 0.4-0.4 0.4h-0.8c-0.2 0-0.4-0.1-0.4-0.4v-7c0-0.2 0.2-0.4 0.4-0.4h3.4q0.8 0 1.2 0.2zm-3 1.1c-0.2 0-0.4 0.2-0.4 0.5v1.2c0 0.3 0.2 0.5 0.4 0.5h1c0.2 0 0.6-0.1 0.8-0.1 0 0 0.2 0 0.4-0.1q0.4-0.2 0.4-0.9 0-0.7-0.4-0.9-0.3-0.2-0.8-0.2z"/><path  d="m196.6 579.7c0 0.3-0.2 0.4-0.4 0.4h-0.8c-0.3 0-0.4-0.1-0.4-0.4v-7c0-0.2 0.1-0.4 0.4-0.4h0.8c0.2 0 0.4 0.2 0.4 0.4z"/><path  d="m197.2 572.7c0-0.2 0.1-0.4 0.4-0.4h0.8c0.2 0 0.4 0.2 0.4 0.4v5.6c0 0.2 0.2 0.4 0.4 0.4h3.1c0.3 0 0.4 0.2 0.4 0.4v0.6c0 0.3-0.1 0.4-0.4 0.4h-4.7c-0.3 0-0.4-0.1-0.4-0.4z"/><path  d="m203.2 572.7c0-0.2 0.2-0.4 0.4-0.4h0.8c0.3 0 0.4 0.2 0.4 0.4v5.6c0 0.2 0.2 0.4 0.5 0.4h3.1c0.2 0 0.4 0.2 0.4 0.4v0.6c0 0.3-0.2 0.4-0.4 0.4h-4.8c-0.2 0-0.4-0.1-0.4-0.4z"/><path  d="m210.7 579.7c0 0.3-0.1 0.4-0.4 0.4h-0.8c-0.2 0-0.4-0.1-0.4-0.4v-7c0-0.2 0.2-0.4 0.4-0.4h0.8c0.3 0 0.4 0.2 0.4 0.4z"/><path fill-rule="evenodd" d="m213.7 572.7c0.1-0.2 0.4-0.4 0.6-0.4h1c0.3 0 0.5 0.2 0.6 0.4l2.5 7.1q0.1 0.3-0.3 0.3h-0.9q-0.5 0-0.6-0.3l-0.2-0.9c-0.1-0.2-0.4-0.4-0.6-0.4h-2.1c-0.2 0-0.4 0.2-0.5 0.4l-0.3 0.9c-0.1 0.2-0.3 0.3-0.5 0.3h-0.9q-0.5 0-0.3-0.3zm0.2 4.1c-0.1 0.2 0 0.4 0.2 0.4h1.2c0.3 0 0.4-0.2 0.3-0.4l-0.7-2.3q-0.2-0.4-0.3 0z"/><path  d="m218.9 572.7c0-0.2 0.1-0.4 0.4-0.4h0.9c0.2 0 0.5 0.1 0.6 0.3l2.7 4.8c0.1 0.2 0.2 0.2 0.2 0v-4.7c0-0.2 0.2-0.4 0.4-0.4h0.7c0.3 0 0.5 0.2 0.5 0.4v7c0 0.3-0.2 0.4-0.5 0.4h-0.8c-0.2 0-0.5-0.1-0.6-0.3l-2.8-4.9c-0.1-0.2-0.2-0.1-0.2 0.1v4.7c0 0.3-0.2 0.4-0.4 0.4h-0.7c-0.3 0-0.4-0.1-0.4-0.4z"/><path  d="m231.6 572.3c0.3 0 0.4 0.2 0.4 0.4v0.6c-0.1 0.2-0.3 0.4-0.5 0.4h-1.5c-0.2 0-0.4 0.2-0.4 0.4v5.6c0 0.3-0.2 0.4-0.4 0.4h-0.9c-0.2 0-0.4-0.1-0.4-0.4v-5.6c0-0.2-0.2-0.4-0.4-0.4h-1.5c-0.3 0-0.5-0.2-0.5-0.4v-0.6c0-0.2 0.2-0.4 0.5-0.4z"/><path  d="m208.2 586.7c0.2 0 0.5 0.2 0.5 0.4 0 0 0.1 0.3 0.2 0.4q0.4 0.5 1.4 0.5 0.6 0 1-0.1 0.7-0.2 0.7-0.9 0-0.4-0.3-0.6-0.4-0.2-1.1-0.4l-0.5-0.1c-0.2 0-0.6-0.1-0.8-0.2 0 0-1-0.3-1.3-0.5q-0.8-0.5-0.8-1.7 0-1 0.8-1.7 0.7-0.7 2.3-0.7 1.2 0 2.1 0.6 0.9 0.7 0.9 1.9h-1.1c-0.3 0-0.5-0.1-0.6-0.4 0 0-0.1-0.4-0.5-0.6q-0.4-0.2-1-0.2-0.6 0-1 0.3-0.4 0.3-0.4 0.7 0 0.4 0.4 0.6 0.2 0.2 1 0.4l1 0.2c0.2 0.1 0.6 0.1 0.8 0.2 0 0 0.7 0.2 1 0.5q0.7 0.5 0.7 1.6 0 1-0.8 1.8-0.9 0.7-2.4 0.7-1.6 0-2.5-0.7-0.8-0.7-0.8-2z"/><path fill-rule="evenodd" d="m220.1 588.5q-0.9 0.9-2.6 0.9-1.7 0-2.6-0.9-1.2-1.2-1.2-3.3 0-2.1 1.2-3.2 0.9-0.9 2.6-0.9 1.7 0 2.6 0.9 1.2 1.1 1.2 3.2 0 2.1-1.2 3.3zm-1-1.2q0.6-0.7 0.6-2.1 0-1.3-0.6-2-0.6-0.7-1.6-0.7-0.9 0-1.5 0.7-0.6 0.7-0.6 2 0 1.4 0.6 2.1 0.6 0.7 1.5 0.7 1 0 1.6-0.7z"/><path  d="m221.7 581.7c0-0.2 0.2-0.4 0.4-0.4h0.8c0.3 0 0.4 0.2 0.4 0.4v5.6c0 0.3 0.2 0.5 0.5 0.5h3.1c0.2 0 0.4 0.1 0.4 0.4v0.6c0 0.2-0.2 0.4-0.4 0.4h-4.8c-0.2 0-0.4-0.2-0.4-0.4z"/><path  d="m233.4 582.3c0 0.2-0.2 0.4-0.4 0.4h-3.4c-0.2 0-0.4 0.2-0.4 0.4v0.9c0 0.2 0.2 0.4 0.4 0.4h3c0.3 0 0.5 0.2 0.5 0.4v0.5c0 0.2-0.2 0.4-0.5 0.4h-3c-0.2 0-0.4 0.2-0.4 0.4v1.2c0 0.3 0.2 0.5 0.4 0.5h3.1q0.4 0 0.6 0.3l0.2 0.7c0.1 0.2 0 0.4-0.2 0.4h-5.3c-0.2 0-0.4-0.2-0.4-0.4v-7.1c0-0.2 0.2-0.4 0.4-0.4h5c0.2 0 0.4 0.2 0.4 0.4z"/><path  d="m234.4 576.4l0.5 2h0.1l1.2-3q-0.1-0.1-0.2-0.2l-1.2 0.4v0.2c0 0.3-0.2 0.5-0.4 0.6z"/><path  d="m238.4 574.9h-1.1q-0.1 0.4-0.3 0.5l0.9 2.9h0.1l0.9-2.8c-0.2-0.1-0.4-0.3-0.5-0.6z"/><path  d="m235.3 581.9q-0.1-0.5-0.2-1c-0.1-0.4-0.1-0.7-0.2-1-0.3 0-0.5-0.2-0.6-0.5l-0.8 0.2q0.2 1.3 0.3 2.9h1.1c0-0.3 0.2-0.5 0.4-0.6z"/><path  d="m235.3 578.5q0.2 0.2 0.3 0.5l1.6-0.1c0.1-0.3 0.2-0.4 0.4-0.6l-0.9-2.8h-0.2z"/><path  d="m236.6 584.4q0.2 0 0.5 0.1l0.4-1.4q-0.2-0.2-0.3-0.5l-0.9 0.1c0 0.2-0.2 0.4-0.4 0.5l0.3 1.3q0.2-0.1 0.4-0.1z"/><path  d="m238.7 579.1q-0.2 0.4-0.6 0.6v2.1c0.2 0 0.4 0.2 0.5 0.4l0.9-0.1v-0.8c-0.1-1-0.1-1.6-0.1-2.2z"/><path  d="m236.2 574.2q0.1-0.1 0.4-0.1c0.1-0.9 0.2-1.8 0.3-2.5q-0.3-0.1-0.5-0.3l-1.3 0.9q0.1 0.1 0.1 0.4 0 0.3-0.2 0.5z"/><path  d="m235.6 581.8c0.3 0 0.6 0.3 0.7 0.6h1q0-0.2 0.1-0.3l-2.2-2.3c0.1 0.7 0.3 1.5 0.4 2z"/><path  d="m241.9 570q-0.7-0.2-1.1-0.5l-0.1 0.6c0.6 0.1 1 0.6 1 1.3v0.2l0.9 0.2q0-0.7-0.1-1.2c0 0-0.1-0.4-0.6-0.6z"/><path  d="m233.6 570.5q0.3-0.2 0.6-0.5l-0.2-0.7h-0.1c-0.3 0-0.5-0.2-0.5-0.5 0-0.3 0.2-0.6 0.5-0.6 0.3 0 0.6 0.3 0.6 0.6q-0.1 0.2-0.2 0.4l0.2 0.6 1.3-1.3-0.2-0.4q-0.2 0.1-0.3 0.1c-0.4 0-0.8-0.3-0.8-0.7 0-0.4 0.4-0.8 0.8-0.8 0.4 0 0.7 0.4 0.7 0.8q0 0.3-0.2 0.5l0.2 0.3q0.5-0.3 1.1-0.5v-0.3h-0.1c-0.5 0-0.9-0.4-0.9-0.9 0-0.5 0.4-0.9 0.9-0.9 0.5 0 0.9 0.4 0.9 0.9 0 0.3-0.3 0.7-0.6 0.8l0.1 0.3q0.5-0.1 1.1-0.1 0.1 0.1 0.2 0.1v-0.5c-0.4-0.1-0.7-0.5-0.7-1 0-0.6 0.5-1.1 1.1-1.1 0.6 0 1.1 0.5 1.1 1.1 0 0.6-0.5 1.1-1.1 1.1h-0.1l-0.1 0.5c0.4 0.1 0.7 0.4 1.1 0.7q0.3 0.2 0.6 0.4l0.5-1.2c-0.4-0.2-0.7-0.6-0.7-1.1 0-0.7 0.5-1.3 1.2-1.3 0.7 0 1.3 0.6 1.3 1.3 0 0.7-0.6 1.2-1.3 1.2h-0.2l-0.5 1.2q0.4 0.3 1 0.6c0 0 0.3 0.1 0.5-0.6 0.2-0.7 0.9-1.2 0.8-2.2 0 0-0.1-2.3-1.2-2.3-1.4 0-1.7 0.9-1.7 0.9 0 0-0.3-0.9-1.2-0.9-0.7 0-1.1 0.9-1.1 0.9 0 0-0.5-0.5-1.2-0.3-0.9 0.2-1.1 1.1-1.1 1.1 0 0-0.4-0.2-1.1 0.1-0.5 0.3-0.7 0.9-0.6 1.3 0 0-1 0.1-1.2 1.3 0 0.5 0.1 0.9 0.2 1.3 0.2 0.6 0.6 0.3 0.6 0.3z"/><path  d="m236.6 587.4c-0.6 0-1-0.5-1-1 0-0.6 0.4-1.1 1-1.1 0.5 0 1 0.5 1 1.1 0 0.5-0.5 1-1 1z"/><path  d="m234 575.1l0.1-1.6q-0.3-0.1-0.5-0.3l-1.2 1.1q0.1 0.9 0.4 1.9l0.6-0.2v-0.2c0-0.4 0.2-0.7 0.6-0.7z"/><path  d="m236 584.5l-0.4-1.2c-0.4 0-0.6-0.3-0.7-0.6l-1.1 0.1q0 1.6-0.3 3.6v0.2l1.2-0.1v-0.1c0-0.9 0.5-1.6 1.3-1.9z"/><path  d="m233.5 579.3l0.7-0.1c0-0.3 0.2-0.6 0.4-0.7l-0.5-2c-0.2 0-0.5-0.1-0.6-0.3l-0.6 0.3q0.3 1.3 0.6 2.7z"/><path  d="m240.1 575c-0.1 0.3-0.4 0.6-0.8 0.6h-0.1l-0.9 2.7c0.2 0.1 0.3 0.3 0.4 0.5h0.7c0.1-0.4 0.2-0.8 0.4-1.3 0.3-0.6 0.9-1.3 1.5-2.3z"/><path  d="m241.7 571.8c-0.2 0.5-0.7 0.8-1.2 0.8h-0.3l-0.5 1.3c0.3 0.1 0.5 0.4 0.5 0.8l1.3 0.3c0.5-0.9 1-1.8 1.1-2.9z"/><path  d="m238.5 586.3l1.4-0.1v-0.2c-0.1-2.1-0.3-2.6-0.4-3.6l-0.8 0.1c0 0.4-0.3 0.7-0.7 0.7h-0.2l-0.5 1.4c0.7 0.3 1.2 0.9 1.2 1.7z"/><path  d="m237.8 581.8v-2.1c-0.3-0.1-0.5-0.3-0.5-0.6l-1.7 0.1q0 0.3-0.1 0.4l2.1 2.3q0.1-0.1 0.2-0.1z"/><path  d="m234.3 575.1q0.2 0 0.4 0.3l1.2-0.5v-0.1q0-0.2 0.1-0.4l-1.2-1.1q-0.2 0.1-0.5 0.2z"/><path  d="m236.5 588.3c-0.9-0.1-1.6-0.7-1.8-1.6l-1.3 0.2c0 2.4 2.1 2.8 3.1 2.9z"/><path  d="m238.5 586.6c-0.1 0.9-0.8 1.6-1.8 1.7v1.5c1-0.1 3-1 3.1-3.3z"/><path  d="m233.5 573q-0.1-0.2-0.1-0.4c0-0.5 0.3-0.9 0.8-0.9v-1.2q-0.5 0.6-0.9 0.8c-0.4 0.2-0.7 0.7-0.7 0.8-0.2 0.5-0.4 1.1-0.3 1.9z"/><path  d="m240.4 570.1l0.1-0.8q-0.4-0.3-0.7-0.5-0.3-0.3-0.6-0.4l1 1.7z"/><path  d="m238.4 568q-0.5 0-1 0.1l-0.1 1.4c0.5 0 0.9 0.5 0.9 1v0.1l1.1 0.3c0.1-0.3 0.3-0.5 0.6-0.7l-1.1-2.1q-0.2 0-0.4-0.1z"/><path  d="m238.2 570.9q-0.2 0.3-0.4 0.5l1.2 2.4h0.5l0.4-1.3c-0.4-0.2-0.7-0.6-0.7-1.1v-0.2z"/><path  d="m236.8 574.1c0.3 0.1 0.5 0.3 0.5 0.6h1.1c0-0.3 0.1-0.6 0.4-0.8l-1.3-2.4q-0.1 0.1-0.3 0.1c-0.1 0.8-0.3 1.8-0.4 2.5z"/><path  d="m234.4 571.7h0.1l0.9-2.3q-0.5 0.5-0.9 0.9z"/><path  d="m234.7 571.8q0.1 0.1 0.2 0.1l1.3-0.9q-0.1-0.2-0.1-0.5c0-0.5 0.4-1 1-1.1v-1.2c-0.5 0.2-0.9 0.4-1.1 0.7z"/><path  d="m218.5 586.5q0.4-0.4 0.4-1.3 0-0.8-0.4-1.3-0.4-0.4-1-0.4-0.6 0-0.9 0.4-0.4 0.5-0.4 1.3 0 0.9 0.4 1.3 0.3 0.5 0.9 0.5 0.6 0 1-0.5z"/></g></svg>